<?xml version="1.0" encoding="utf-8"?>
<!-- Generator: Adobe Illustrator 27.5.0, SVG Export Plug-In . SVG Version: 6.00 Build 0)  -->
<svg version="1.1" xmlns="http://www.w3.org/2000/svg" xmlns:xlink="http://www.w3.org/1999/xlink" x="0px" y="0px"
	 viewBox="0 0 2200 2200" style="enable-background:new 0 0 2200 2200;" xml:space="preserve">
<g id="background">
	<rect style="fill:#FFFFFF;" width="2200" height="2200"/>
</g>
<g id="Objects">
	<g>
		<linearGradient id="SVGID_1_" gradientUnits="userSpaceOnUse" x1="1100" y1="129.7386" x2="1100" y2="1986.1602">
			<stop  offset="0" style="stop-color:#04D8EA"/>
			<stop  offset="1" style="stop-color:#123AD0"/>
		</linearGradient>
		<path style="fill:url(#SVGID_1_);" d="M1100,1971.015c-188.469,0-365.829-24.542-499.409-69.104
			c-137.851-45.986-213.768-108.898-213.768-177.147v-299.266c0-6.904,5.597-12.502,12.502-12.502
			c6.905,0,12.502,5.598,12.502,12.502v299.266c0,55.809,71.686,111.732,196.677,153.429
			c131.096,43.734,305.646,67.819,491.497,67.819s360.401-24.085,491.497-67.819c124.991-41.697,196.678-97.62,196.678-153.429
			v-299.266c0-6.904,5.597-12.502,12.502-12.502s12.502,5.598,12.502,12.502v299.266c0,68.249-75.918,131.161-213.768,177.147
			C1465.829,1946.473,1288.469,1971.015,1100,1971.015z"/>
		
			<linearGradient id="SVGID_00000103986466880628412640000005085555427086651027_" gradientUnits="userSpaceOnUse" x1="1100" y1="157.2316" x2="1100" y2="2013.6531">
			<stop  offset="0" style="stop-color:#04D8EA"/>
			<stop  offset="1" style="stop-color:#123AD0"/>
		</linearGradient>
		<path style="fill:url(#SVGID_00000103986466880628412640000005085555427086651027_);" d="M1100,1554.507
			c-188.469,0-365.829-24.542-499.409-69.104c-137.85-45.987-213.768-108.9-213.768-177.148v-299.266
			c0-6.905,5.597-12.502,12.502-12.502c6.905,0,12.502,5.597,12.502,12.502v299.266c0,55.809,71.686,111.732,196.677,153.429
			c131.096,43.735,305.646,67.82,491.497,67.82c185.85,0,360.401-24.085,491.497-67.82
			c124.991-41.697,196.678-97.62,196.678-153.429v-299.266c0-6.905,5.597-12.502,12.502-12.502s12.502,5.597,12.502,12.502v299.266
			c0,68.249-75.917,131.161-213.768,177.148C1465.828,1529.965,1288.469,1554.507,1100,1554.507z"/>
		
			<linearGradient id="SVGID_00000031886458925340796210000012289672888456263298_" gradientUnits="userSpaceOnUse" x1="1100" y1="184.7246" x2="1100" y2="2041.1461">
			<stop  offset="0" style="stop-color:#04D8EA"/>
			<stop  offset="1" style="stop-color:#123AD0"/>
		</linearGradient>
		<path style="fill:url(#SVGID_00000031886458925340796210000012289672888456263298_);" d="M1100,1137.997
			c-188.469,0-365.829-24.542-499.409-69.104c-137.85-45.987-213.768-108.9-213.768-177.148V592.48
			c0-6.905,5.597-12.502,12.502-12.502c6.905,0,12.502,5.597,12.502,12.502v299.266c0,55.809,71.686,111.732,196.677,153.429
			c131.096,43.734,305.646,67.819,491.497,67.819s360.401-24.085,491.497-67.819c124.991-41.697,196.678-97.62,196.678-153.429
			V592.48c0-6.905,5.597-12.502,12.502-12.502s12.502,5.597,12.502,12.502v299.266c0,68.248-75.917,131.161-213.768,177.148
			C1465.829,1113.456,1288.469,1137.997,1100,1137.997z"/>
		
			<linearGradient id="SVGID_00000163766843213231212890000002270524868808310195_" gradientUnits="userSpaceOnUse" x1="1100" y1="243.7521" x2="1100" y2="1985.2223">
			<stop  offset="0" style="stop-color:#04D8EA"/>
			<stop  offset="1" style="stop-color:#123AD0"/>
		</linearGradient>
		<path style="fill:url(#SVGID_00000163766843213231212890000002270524868808310195_);" d="M1100,721.476
			c-188.467,0-365.827-24.541-499.409-69.103C462.74,606.388,386.823,543.48,386.823,475.237
			c0-68.248,75.918-131.161,213.768-177.148c133.58-44.563,310.941-69.104,499.409-69.104s365.829,24.542,499.409,69.104
			c137.851,45.987,213.768,108.9,213.768,177.148c0,68.242-75.918,131.15-213.768,177.136
			C1465.827,696.935,1288.467,721.476,1100,721.476z M1100,253.989c-185.85,0-360.401,24.085-491.497,67.819
			c-124.991,41.697-196.677,97.62-196.677,153.429c0,55.803,71.686,111.722,196.677,153.418
			c131.098,43.733,305.648,67.818,491.497,67.818c185.848,0,360.399-24.085,491.497-67.818
			c124.991-41.695,196.678-97.615,196.678-153.418c0-55.809-71.687-111.732-196.678-153.429
			C1460.401,278.074,1285.85,253.989,1100,253.989z"/>
		
			<linearGradient id="SVGID_00000132810544753024625480000015798895142198034064_" gradientUnits="userSpaceOnUse" x1="563.2605" y1="243.7521" x2="563.2605" y2="1985.2223">
			<stop  offset="0" style="stop-color:#04D8EA"/>
			<stop  offset="1" style="stop-color:#123AD0"/>
		</linearGradient>
		<circle style="fill:url(#SVGID_00000132810544753024625480000015798895142198034064_);" cx="563.26" cy="819.38" r="28.589"/>
		
			<linearGradient id="SVGID_00000089546958102350120530000006844826025430641287_" gradientUnits="userSpaceOnUse" x1="563.2605" y1="243.7521" x2="563.2605" y2="1985.2223">
			<stop  offset="0" style="stop-color:#04D8EA"/>
			<stop  offset="1" style="stop-color:#123AD0"/>
		</linearGradient>
		<circle style="fill:url(#SVGID_00000089546958102350120530000006844826025430641287_);" cx="563.26" cy="1243.191" r="28.589"/>
		
			<linearGradient id="SVGID_00000031914378609623124750000000956243823947244183_" gradientUnits="userSpaceOnUse" x1="563.2605" y1="243.7521" x2="563.2605" y2="1985.2223">
			<stop  offset="0" style="stop-color:#04D8EA"/>
			<stop  offset="1" style="stop-color:#123AD0"/>
		</linearGradient>
		<circle style="fill:url(#SVGID_00000031914378609623124750000000956243823947244183_);" cx="563.26" cy="1667.002" r="28.589"/>
	</g>
</g>
</svg>
