<?xml version="1.0" encoding="utf-8"?>
<!-- Generator: Adobe Illustrator 27.5.0, SVG Export Plug-In . SVG Version: 6.00 Build 0)  -->
<svg version="1.1" xmlns="http://www.w3.org/2000/svg" xmlns:xlink="http://www.w3.org/1999/xlink" x="0px" y="0px"
	 viewBox="0 0 2200 2200" style="enable-background:new 0 0 2200 2200;" xml:space="preserve">
<g id="background">
	<rect style="fill:#FFFFFF;" width="2200" height="2200"/>
</g>
<g id="Objects">
	<g>
		<path style="fill:#1D1F23;" d="M1949.224,912.233c-38.435-90.869-93.445-172.466-163.503-242.523
			c-70.057-70.057-151.654-125.067-242.524-163.503c-75.751-32.04-155.277-51.356-237.127-57.677v-84.009h48.674
			c37.781,0,68.413-30.629,68.413-68.413c0-37.784-30.632-68.413-68.413-68.413h-217.153c-37.781,0-68.413,30.629-68.413,68.413
			c0,37.784,30.632,68.413,68.413,68.413h48.674v84.015c-135.115,10.471-263.973,56.334-375.777,134.218
			c-61.736,43.007-116.704,94.768-163.375,153.844c-38.499,48.732-70.776,101.728-96.265,157.983H351.947
			c-33.083,0-59.902,26.819-59.902,59.902s26.819,59.902,59.902,59.902h237.876c0.257,0.003,0.514,0.018,0.771,0.018
			c0.309,0,0.617-0.013,0.926-0.018h207.918c33.083,0,59.902-26.819,59.902-59.902s-26.819-59.902-59.902-59.902H685.04
			c16.434-29.238,35.155-57.227,56.082-83.715c39.381-49.849,85.759-93.523,137.847-129.807
			c108.033-75.257,235.008-115.035,367.2-115.035c86.863,0,171.096,16.999,250.358,50.524
			c76.589,32.395,145.386,78.783,204.48,137.877c59.093,59.094,105.481,127.89,137.877,204.48
			c33.526,79.263,50.525,163.495,50.525,250.358s-16.999,171.095-50.525,250.358c-32.395,76.589-78.784,145.386-137.877,204.479
			c-59.094,59.094-127.891,105.482-204.48,137.877c-79.262,33.526-163.495,50.525-250.358,50.525
			c-132.194,0-259.172-39.78-367.206-115.039c-52.087-36.286-98.465-79.96-137.845-129.809
			c-20.925-26.489-39.645-54.477-56.078-83.715h114.399c33.083,0,59.902-26.819,59.902-59.902s-26.819-59.902-59.902-59.902h-208.09
			c-0.713-0.009-1.425-0.017-2.14,0H420.54c-33.083,0-59.902,26.819-59.902,59.902s26.819,59.902,59.902,59.902h130.309
			c25.487,56.253,57.762,109.248,96.259,157.979c46.67,59.078,101.638,110.84,163.374,153.848
			c128.226,89.325,278.884,136.54,435.687,136.54c102.984,0,202.918-20.183,297.028-59.989
			c90.87-38.435,172.467-93.445,242.525-163.502c70.057-70.057,125.067-151.654,163.503-242.525
			c39.806-94.11,59.989-194.045,59.989-297.028S1989.03,1006.344,1949.224,912.233z"/>
		<path style="fill:#1D1F23;" d="M1578.561,845.206l-316.832,209.709c-44.754-4.471-91.092,10.392-125.301,44.602
			c-29.313,29.313-45.457,68.287-45.457,109.742c0,41.454,16.144,80.429,45.457,109.741c29.313,29.313,68.286,45.456,109.741,45.456
			c41.455,0,80.428-16.143,109.741-45.455c0.001-0.002-0.002,0.001,0-0.001c29.31-29.312,45.457-68.288,45.457-109.741
			c0-5.27-0.264-10.499-0.779-15.673l209.635-316.719C1623.959,856.113,1599.315,831.469,1578.561,845.206z M1271.196,1234.285
			C1271.195,1234.286,1271.195,1234.286,1271.196,1234.285c-13.801,13.8-36.255,13.801-50.055,0
			c-6.684-6.684-10.366-15.572-10.366-25.026c0-9.454,3.682-18.342,10.367-25.027c6.9-6.9,15.963-10.35,25.026-10.35
			c9.064,0,18.126,3.45,25.026,10.35c6.685,6.685,10.367,15.573,10.367,25.027
			C1281.562,1218.712,1277.88,1227.601,1271.196,1234.285z"/>
		<path style="fill:#1D1F23;" d="M895.27,1209.259c0-33.083-26.819-59.902-59.902-59.902H250.689
			c-33.083,0-59.902,26.819-59.902,59.902s26.819,59.902,59.902,59.902h584.679C868.451,1269.161,895.27,1242.342,895.27,1209.259z"
			/>
	</g>
</g>
</svg>
